<svg width="25" height="25" viewBox="0 0 25 25" fill="none" xmlns="http://www.w3.org/2000/svg">
<g clip-path="url(#clip0)">
<path d="M8.50587 13.7798H2.58799C1.15597 13.7798 0 12.6052 0 11.1501V2.62973C0 1.17461 1.15597 0 2.58799 0H8.50587C9.93789 0 11.0939 1.17461 11.0939 2.62973V11.1501C11.0939 12.6052 9.93789 13.7798 8.50587 13.7798Z" fill="white"/>
<path d="M9.02347 25H2.07039C0.931677 25 0 24.0533 0 22.8962V18.2854C0 17.1283 0.931677 16.1816 2.07039 16.1816H9.02347C10.1622 16.1816 11.0939 17.1283 11.0939 18.2854V22.8962C11.0939 24.0533 10.1622 25 9.02347 25Z" fill="white"/>
<path d="M22.412 11.2202H16.4941C15.0621 11.2202 13.9061 12.3948 13.9061 13.8499V22.3703C13.9061 23.8254 15.0621 25 16.4941 25H22.412C23.844 25 25 23.8254 25 22.3703V13.8499C25 12.3948 23.8268 11.2202 22.412 11.2202Z" fill="white"/>
<path d="M22.9296 0H15.9765C14.8378 0 13.9061 0.946704 13.9061 2.10379V6.71459C13.9061 7.87167 14.8378 8.81837 15.9765 8.81837H22.9296C24.0683 8.81837 25 7.87167 25 6.71459V2.10379C25 0.946704 24.0683 0 22.9296 0Z" fill="white"/>
</g>
<defs>
<clipPath id="clip0">
<rect width="25" height="25" fill="white"/>
</clipPath>
</defs>
</svg>
