<svg width="34" height="34" viewBox="0 0 34 34" fill="none" xmlns="http://www.w3.org/2000/svg">
<path d="M16.9999 32.3756C17.5948 32.3619 18.1657 32.1382 18.6116 31.7441C19.0576 31.35 19.3498 30.811 19.4365 30.2222H14.4688C14.558 30.827 14.8638 31.3787 15.3294 31.7748C15.795 32.1709 16.3886 32.3844 16.9999 32.3756Z" fill="white"/>
<path d="M31.0251 26.5672L30.7039 26.2839C29.793 25.4722 28.9956 24.5414 28.3334 23.5167C27.6102 22.1024 27.1767 20.5579 27.0584 18.9739V14.3083C27.0546 13.7416 27.004 13.1762 26.9073 12.6178C25.3075 12.289 23.8705 11.4174 22.8396 10.1507C21.8086 8.88396 21.2471 7.29989 21.2501 5.66667V5.07167C20.264 4.5864 19.2046 4.2673 18.1145 4.12722V2.93722C18.1145 2.60283 17.9817 2.28213 17.7452 2.04568C17.5088 1.80923 17.1881 1.67639 16.8537 1.67639C16.5193 1.67639 16.1986 1.80923 15.9621 2.04568C15.7257 2.28213 15.5928 2.60283 15.5928 2.93722V4.17445C13.1521 4.51875 10.9184 5.73443 9.30399 7.59705C7.6896 9.45967 6.80358 11.8435 6.8095 14.3083V18.9739C6.69122 20.5579 6.25774 22.1024 5.5345 23.5167C4.88367 24.5389 4.09913 25.4695 3.20173 26.2839L2.88062 26.5672V29.2306H31.0251V26.5672Z" fill="white"/>
<path d="M28.3333 10.3889C30.9413 10.3889 33.0555 8.27469 33.0555 5.66668C33.0555 3.05867 30.9413 0.944458 28.3333 0.944458C25.7253 0.944458 23.6111 3.05867 23.6111 5.66668C23.6111 8.27469 25.7253 10.3889 28.3333 10.3889Z" fill="white"/>
</svg>
