<svg width="24" height="24" viewBox="0 0 24 24" fill="none" xmlns="http://www.w3.org/2000/svg">
<path d="M0.515625 6.73735C0.328125 6.6436 0.195312 6.54204 0.117188 6.43266C0.0390625 6.32329 0 6.17485 0 5.98735C0 5.79985 0.0390625 5.65141 0.117188 5.54204C0.195312 5.43266 0.328125 5.3311 0.515625 5.23735L10.4688 0.268601C10.875 0.0706845 11.3854 -0.0178571 12 0.00297619C12.6146 -0.0178571 13.125 0.0706845 13.5312 0.268601L23.4844 5.23735C23.6719 5.3311 23.8047 5.43266 23.8828 5.54204C23.9609 5.65141 24 5.79985 24 5.98735C24 6.17485 23.9609 6.32329 23.8828 6.43266C23.8047 6.54204 23.6719 6.6436 23.4844 6.73735L13.5312 11.7061C13.125 11.904 12.6146 11.9926 12 11.9717C11.3854 11.9926 10.875 11.904 10.4688 11.7061L0.515625 6.73735ZM0.515625 18.7686C0.328125 18.6749 0.195312 18.5733 0.117188 18.4639C0.0390625 18.3545 0 18.2061 0 18.0186C0 17.8311 0.0390625 17.6827 0.117188 17.5733C0.195312 17.4639 0.328125 17.3624 0.515625 17.2686L3.01562 16.0186L10.4688 19.7374C10.8854 19.9353 11.3958 20.0186 12 19.9874C12.6042 20.0186 13.1146 19.9353 13.5312 19.7374L20.9844 16.0186L23.4844 17.2686C23.6719 17.3624 23.8047 17.4639 23.8828 17.5733C23.9609 17.6827 24 17.8311 24 18.0186C24 18.2061 23.9609 18.3545 23.8828 18.4639C23.8047 18.5733 23.6719 18.6749 23.4844 18.7686L13.5312 23.7374C13.1146 23.9353 12.6042 24.0186 12 23.9874C11.3958 24.0186 10.8854 23.9353 10.4688 23.7374L0.515625 18.7686ZM0.515625 12.7686C0.328125 12.6749 0.195312 12.5733 0.117188 12.4639C0.0390625 12.3545 0 12.2061 0 12.0186C0 11.8311 0.0390625 11.6827 0.117188 11.5733C0.195312 11.4639 0.328125 11.3624 0.515625 11.2686L3.01562 10.0186L10.4688 13.7374C10.8854 13.9353 11.3958 14.0186 12 13.9874C12.6042 14.0186 13.1146 13.9353 13.5312 13.7374L20.9844 10.0186L23.4844 11.2686C23.6719 11.3624 23.8047 11.4639 23.8828 11.5733C23.9609 11.6827 24 11.8311 24 12.0186C24 12.2061 23.9609 12.3545 23.8828 12.4639C23.8047 12.5733 23.6719 12.6749 23.4844 12.7686L13.5312 17.7374C13.1146 17.9353 12.6042 18.0186 12 17.9874C11.3958 18.0186 10.8854 17.9353 10.4688 17.7374L0.515625 12.7686Z" fill="#B5B5B5"/>
<path d="M12.5 5.5V2H11.5V5.5H8V6.5H11.5V10H12.5V6.5H16V5.5H12.5Z" fill="white"/>
</svg>
