<svg width="34" height="34" viewBox="0 0 34 34" fill="none" xmlns="http://www.w3.org/2000/svg">
<path d="M28.4208 26.4881C29.9467 24.6523 31.008 22.4759 31.5148 20.1431C32.0217 17.8103 31.9593 15.3898 31.3328 13.0862C30.7063 10.7827 29.5343 8.66388 27.9158 6.90911C26.2973 5.15434 24.2799 3.81519 22.0344 3.00496C19.7889 2.19473 17.3813 1.93725 15.0152 2.2543C12.6491 2.57135 10.3942 3.45361 8.44126 4.82643C6.48828 6.19925 4.89467 8.02226 3.79524 10.1412C2.69582 12.2602 2.12291 14.6128 2.12501 17C2.12581 20.4703 3.34873 23.8295 5.57919 26.4881L5.55794 26.5062C5.63232 26.5955 5.71732 26.672 5.79382 26.7601C5.88944 26.8696 5.99251 26.9726 6.09132 27.0789C6.38882 27.4019 6.69482 27.7121 7.01569 28.0033C7.11344 28.0925 7.21438 28.1754 7.31319 28.2604C7.65319 28.5536 8.00276 28.832 8.36507 29.0913C8.41182 29.1231 8.45432 29.1646 8.50107 29.1975V29.1848C10.9896 30.9359 13.9582 31.8758 17.0011 31.8758C20.044 31.8758 23.0126 30.9359 25.5011 29.1848V29.1975C25.5478 29.1646 25.5893 29.1231 25.6371 29.0913C25.9983 28.831 26.3489 28.5536 26.6889 28.2604C26.7878 28.1754 26.8887 28.0915 26.9864 28.0033C27.3073 27.7111 27.6133 27.4019 27.9108 27.0789C28.0096 26.9726 28.1116 26.8696 28.2083 26.7601C28.2838 26.672 28.3698 26.5955 28.4442 26.5051L28.4208 26.4881ZM17 8.50002C17.9457 8.50002 18.8701 8.78043 19.6563 9.3058C20.4426 9.83117 21.0554 10.5779 21.4173 11.4516C21.7792 12.3252 21.8739 13.2866 21.6894 14.214C21.5049 15.1415 21.0495 15.9935 20.3809 16.6621C19.7122 17.3308 18.8603 17.7862 17.9328 17.9706C17.0053 18.1551 16.044 18.0604 15.1703 17.6986C14.2966 17.3367 13.5499 16.7239 13.0245 15.9376C12.4992 15.1513 12.2188 14.2269 12.2188 13.2813C12.2188 12.0132 12.7225 10.7971 13.6192 9.90041C14.5158 9.00376 15.7319 8.50002 17 8.50002ZM8.50744 26.4881C8.52588 25.093 9.09283 23.7613 10.0856 22.781C11.0784 21.8007 12.4173 21.2507 13.8125 21.25H20.1875C21.5827 21.2507 22.9216 21.8007 23.9144 22.781C24.9072 23.7613 25.4741 25.093 25.4926 26.4881C23.1623 28.588 20.1368 29.7501 17 29.7501C13.8632 29.7501 10.8377 28.588 8.50744 26.4881Z" fill="white"/>
</svg>
